<svg id="Layer_1" data-name="Layer 1" xmlns="http://www.w3.org/2000/svg" viewBox="0 0 263.06 318.06"><defs><style>.cls-1{fill:#231f20;}</style></defs><title>Mnemex</title><path class="cls-1" d="M161.36,247.6a9,9,0,0,1-9-9V100.41a9,9,0,1,1,18,0V238.6A9,9,0,0,1,161.36,247.6Z" transform="translate(-3.26 -3.37)"/><path class="cls-1" d="M108.21,247.6a9,9,0,0,1-9-9V100.41a9,9,0,0,1,18,0V238.6A9,9,0,0,1,108.21,247.6Z" transform="translate(-3.26 -3.37)"/><path class="cls-1" d="M245.08,254.6a9,9,0,0,1-9-9V60.6H33.5v185a9,9,0,1,1-18,0V51.6a9,9,0,0,1,9-9H245.08a9,9,0,0,1,9,9v194A9,9,0,0,1,245.08,254.6Z" transform="translate(-3.26 -3.37)"/><path class="cls-1" d="M257.32,21.37H12.26a9,9,0,0,1,0-18H257.32a9,9,0,0,1,0,18Z" transform="translate(-3.26 -3.37)"/><path class="cls-1" d="M32,321.42V301.11l-4.44,13.36H24.71l-4.34-13.13v20.08H15.24V288.85h4.62L26.18,306l6.26-17.11h4.67v32.57Z" transform="translate(-3.26 -3.37)"/><path class="cls-1" d="M77.1,321.42l-7.69-19.35v19.35H64.29V288.85h4.57L76.5,308.2V288.85h5.13v32.57Z" transform="translate(-3.26 -3.37)"/><path class="cls-1" d="M108.8,321.42V288.85h13.68v4.62h-8.55v9.24h7.36v4.62h-7.36v9.47h8.55v4.62Z" transform="translate(-3.26 -3.37)"/><path class="cls-1" d="M165.35,321.42V301.11l-4.44,13.36h-2.83l-4.35-13.13v20.08h-5.12V288.85h4.62L159.54,306l6.27-17.11h4.66v32.57Z" transform="translate(-3.26 -3.37)"/><path class="cls-1" d="M197.65,321.42V288.85h13.68v4.62h-8.56v9.24h7.37v4.62h-7.37v9.47h8.56v4.62Z" transform="translate(-3.26 -3.37)"/><path class="cls-1" d="M248.34,321.42l-3.75-11.71-3.75,11.71h-5.63l6.45-16.88-5.94-15.69h5.62l3.25,10.89,3.25-10.89h5.63l-6.09,15.69L254,321.42Z" transform="translate(-3.26 -3.37)"/></svg>